<svg xmlns="http://www.w3.org/2000/svg" viewBox="0 0 500 480.51"><defs><style>.a{fill:#f50707;}</style></defs><title>Logo</title><path class="a" d="M452,481H48A48.14,48.14,0,0,1,0,433V48.51a48.14,48.14,0,0,1,48-48H452a48.14,48.14,0,0,1,48,48V433A48.14,48.14,0,0,1,452,481ZM392.23,109.75H356.62V210.81H285.54V145.36a35.61,35.61,0,0,0-35.61-35.61H214.38V353.11h35.55a35.61,35.61,0,0,0,35.61-35.61V282H285.4v-0.14h0.14V282h71.08v71.22H396a35.61,35.61,0,0,0,31.81-35.41V145.36A35.6,35.6,0,0,0,392.23,109.75Zm-205.07-5.39a35.54,35.54,0,1,0-35.53,35.55A35.54,35.54,0,0,0,187.17,104.36ZM116,167.06v60.11a0.07,0.07,0,0,1,.06,0H116V320A35.55,35.55,0,0,1,72.17,352.5c0,0.2,0,.43,0,0.65a57.43,57.43,0,0,0,28.75,49.79,55.9,55.9,0,0,0,13.19,5.56,57,57,0,0,0,15.57,2.16q1.8,0,3.54-.12a0.06,0.06,0,0,0,.08,0,57.45,57.45,0,0,0,53.86-57h0.1V167.06H116Z"/></svg>