<svg xmlns="http://www.w3.org/2000/svg" viewBox="0 0 936.72 251.54"><title>Logo</title><path d="M388.84,79.85h14.48v58.68q0,12-7.5,19.08T376,164.68q-13.1,0-20.23-6.61t-7.13-18.39h14.48q0,6.67,3.3,10t9.57,3.36a11.92,11.92,0,0,0,9.34-3.88q3.48-3.88,3.48-10.72V79.85Z"/><path d="M416,131.86a36.67,36.67,0,0,1,3.62-16.47,26.44,26.44,0,0,1,10.17-11.26,28.67,28.67,0,0,1,15.06-3.94q12.59,0,20.43,8.1t8.48,21.5l0.06,3.28a37,37,0,0,1-3.53,16.44,26.13,26.13,0,0,1-10.12,11.21,28.89,28.89,0,0,1-15.2,4q-13.16,0-21.06-8.76T416,132.55v-0.69Zm14,1.21q0,9.6,4,15a12.89,12.89,0,0,0,11,5.43,12.75,12.75,0,0,0,11-5.52q3.94-5.52,3.94-16.15,0-9.42-4.05-14.94a13.66,13.66,0,0,0-21.87-.09Q429.94,122.26,429.94,133.07Z"/><path d="M499.37,108.12a21.86,21.86,0,0,1,17.3-7.93q19.89,0,20.18,22.7v40.63h-14V123.41q0-6.44-2.79-9.11t-8.19-2.67a13.45,13.45,0,0,0-12.53,7.47v44.43h-14V75.25h14v32.88Z"/><path d="M563.91,101.34l0.4,7.18a22.37,22.37,0,0,1,18.11-8.33q19.43,0,19.77,22.24v41.09h-14V123.24q0-5.92-2.56-8.77t-8.36-2.84q-8.45,0-12.59,7.64v44.26h-14V101.34h13.16Z"/><path d="M629.38,101.34l0.4,7.18a22.37,22.37,0,0,1,18.11-8.33q19.43,0,19.77,22.24v41.09h-14V123.24q0-5.92-2.56-8.77t-8.36-2.84q-8.45,0-12.59,7.64v44.26h-14V101.34h13.16Z"/><path d="M703.64,143.53l12.64-42.19h14.89L706.45,173q-5.69,15.69-19.31,15.69a24.85,24.85,0,0,1-6.72-1V176.75l2.64,0.17q5.29,0,8-1.92t4.22-6.46l2-5.34-21.84-61.85h15.06Z"/><path d="M807,163.53H792.49V126.4H755.08v37.13H740.54V79.85h14.54v34.83h37.42V79.85H807v83.68Z"/><path d="M860.49,157.44q-6.15,7.24-17.47,7.24-10.12,0-15.32-5.92t-5.2-17.13V101.34h14v40.12q0,11.84,9.83,11.84,10.17,0,13.74-7.3V101.34h14v62.19H860.83Z"/><path d="M910,143.53l12.64-42.19h14.89L912.79,173q-5.69,15.69-19.31,15.69a24.85,24.85,0,0,1-6.72-1V176.75l2.64,0.17q5.29,0,8-1.92t4.22-6.46l2-5.34-21.84-61.85h15.06Z"/><path d="M262,56.37v127a26.22,26.22,0,0,1-23.42,26.08h-29V157H157.16v-0.1h-0.1V157h0.1v26.12a26.23,26.23,0,0,1-26.23,26.23H104.75V30.14h26.18a26.23,26.23,0,0,1,26.23,26.23v48.2h52.35V30.14h26.23A26.22,26.22,0,0,1,262,56.37Z"/><path d="M58.54,52.35A26.18,26.18,0,1,1,84.71,26.17,26.18,26.18,0,0,1,58.54,52.35Z"/><path d="M84.77,72.34V209.7H84.69a42.31,42.31,0,0,1-39.67,42,0,0,0,0,1-.06,0q-1.28.09-2.61,0.09a42,42,0,0,1-11.47-1.59,41.17,41.17,0,0,1-9.71-4.09A42.29,42.29,0,0,1,0,209.4c0-.16,0-0.33,0-0.48A26.19,26.19,0,0,0,32.31,185V116.63h0a0.06,0.06,0,0,0,0,0V72.34H84.77Z"/></svg>