<svg xmlns="http://www.w3.org/2000/svg" viewBox="0 0 937.9 251.86"><defs><style>.a{fill:#fff;}</style></defs><title>Logo</title><path class="a" d="M388.91,80.07h14.47V138.7q0,12-7.49,19.07t-19.78,7.06q-13.09,0-20.21-6.6t-7.12-18.38h14.47q0,6.66,3.3,10t9.56,3.36a11.91,11.91,0,0,0,9.33-3.88q3.47-3.88,3.47-10.71V80.07Z"/><path class="a" d="M416,132a36.64,36.64,0,0,1,3.62-16.45,26.42,26.42,0,0,1,10.16-11.26,28.64,28.64,0,0,1,15-3.93q12.58,0,20.42,8.1T473.73,130l0.06,3.27a37,37,0,0,1-3.53,16.42,26.11,26.11,0,0,1-10.11,11.2,28.86,28.86,0,0,1-15.19,4q-13.15,0-21-8.76T416,132.73V132Zm14,1.21q0,9.59,4,15a12.88,12.88,0,0,0,11,5.43,12.74,12.74,0,0,0,11-5.51q3.93-5.51,3.93-16.14,0-9.42-4-14.93A13.65,13.65,0,0,0,434,117Q430,122.45,430,133.24Z"/><path class="a" d="M499.34,108.32a21.84,21.84,0,0,1,17.28-7.93q19.87,0,20.16,22.68v40.6h-14V123.6q0-6.43-2.79-9.1t-8.18-2.67a13.44,13.44,0,0,0-12.52,7.47v44.39h-14V75.47h14v32.85Z"/><path class="a" d="M563.83,101.55l0.4,7.18a22.35,22.35,0,0,1,18.09-8.33q19.41,0,19.76,22.22v41.06h-14V123.43q0-5.91-2.55-8.76t-8.36-2.84q-8.44,0-12.58,7.64v44.22h-14V101.55h13.15Z"/><path class="a" d="M629.24,101.55l0.4,7.18a22.35,22.35,0,0,1,18.09-8.33q19.41,0,19.76,22.22v41.06h-14V123.43q0-5.91-2.55-8.76t-8.36-2.84q-8.44,0-12.58,7.64v44.22h-14V101.55h13.15Z"/><path class="a" d="M703.44,143.7l12.63-42.15h14.87L706.25,173.1q-5.68,15.68-19.3,15.68a24.82,24.82,0,0,1-6.72-1V176.89l2.64,0.17q5.28,0,8-1.92t4.22-6.46l2-5.34-21.82-61.8h15Z"/><path class="a" d="M806.69,163.68H792.22v-37.1H754.84v37.1H740.31V80.07h14.53v34.8h37.39V80.07h14.47v83.61Z"/><path class="a" d="M860.16,157.59q-6.15,7.24-17.46,7.24-10.11,0-15.3-5.92t-5.2-17.11V101.55h14v40.08q0,11.83,9.82,11.83,10.17,0,13.73-7.29V101.55h14v62.14H860.5Z"/><path class="a" d="M909.6,143.7l12.63-42.15h14.87L912.42,173.1q-5.68,15.68-19.3,15.68a24.82,24.82,0,0,1-6.72-1V176.89l2.64,0.17q5.28,0,8-1.92t4.22-6.46l2-5.34-21.82-61.8h15Z"/><path class="a" d="M262.14,56.61V183.53a26.2,26.2,0,0,1-23.41,26.06h-29V157.18H157.42v-0.1h-0.1v0.1h0.1v26.1a26.21,26.21,0,0,1-26.21,26.21H105.06V30.4h26.16a26.21,26.21,0,0,1,26.21,26.21v48.16h52.31V30.4h26.21A26.2,26.2,0,0,1,262.14,56.61Z"/><path class="a" d="M58.89,52.59A26.15,26.15,0,1,1,85,26.43,26.16,26.16,0,0,1,58.89,52.59Z"/><path class="a" d="M85.09,72.57V209.81H85a42.27,42.27,0,0,1-39.64,41.93,0,0,0,0,1-.06,0q-1.28.09-2.61,0.09a41.91,41.91,0,0,1-11.46-1.59,41.14,41.14,0,0,1-9.7-4.09A42.26,42.26,0,0,1,.39,209.51c0-.16,0-0.33,0-0.48a26.16,26.16,0,0,0,32.27-23.88V116.82h0V72.57H85.09Z"/></svg>