<svg xmlns="http://www.w3.org/2000/svg" viewBox="0 0 500 480.51"><title>Logo</title><path d="M452,481.53H48a48.14,48.14,0,0,1-48-48V49A48.14,48.14,0,0,1,48,1H452a48.14,48.14,0,0,1,48,48V433.53A48.14,48.14,0,0,1,452,481.53ZM392.23,110.26H356.62V211.32H285.54V145.88a35.61,35.61,0,0,0-35.61-35.61H214.38V353.62h35.55A35.61,35.61,0,0,0,285.54,318V282.54H285.4V282.4h0.14v0.14h71.08v71.22H396a35.61,35.61,0,0,0,31.81-35.41V145.88A35.6,35.6,0,0,0,392.23,110.26Zm-205.07-5.39a35.54,35.54,0,1,0-35.53,35.55A35.54,35.54,0,0,0,187.17,104.87ZM116,167.57v60.11a0.07,0.07,0,0,1,.06,0H116v92.85A35.55,35.55,0,0,1,72.17,353c0,0.2,0,.43,0,0.65a57.43,57.43,0,0,0,28.75,49.79A55.9,55.9,0,0,0,114.09,409a57,57,0,0,0,15.57,2.16q1.8,0,3.54-.12a0.06,0.06,0,0,0,.08,0,57.45,57.45,0,0,0,53.86-57h0.1V167.57H116Z"/></svg>