<svg xmlns="http://www.w3.org/2000/svg" viewBox="0 0 500 480.51"><title>Logo</title><path d="M500,106.56V349a50.05,50.05,0,0,1-44.71,49.77H399.88V298.67H300v-0.2h-0.2v0.2H300v49.86a50.06,50.06,0,0,1-50.06,50.06h-50V56.5h50A50.06,50.06,0,0,1,300,106.56v92h99.92V56.5h50.06A50,50,0,0,1,500,106.56Z"/><path d="M111.73,98.9a50,50,0,1,1,49.94-50A50,50,0,0,1,111.73,98.9Z"/><path d="M161.79,137.05V399.22h-0.14a80.75,80.75,0,0,1-75.72,80.09,0.09,0.09,0,0,1-.11,0q-2.45.17-5,.17a80.06,80.06,0,0,1-21.88-3,78.58,78.58,0,0,1-18.54-7.81A80.72,80.72,0,0,1,0,398.65c0-.31,0-0.63,0-0.92a50,50,0,0,0,61.64-45.63V221.58h0.09a0.11,0.11,0,0,0-.09,0v-84.5H161.79Z"/></svg>