<svg xmlns="http://www.w3.org/2000/svg" viewBox="0 0 500 480.51"><defs><style>.a{fill:#f50707;}</style></defs><title>Logo</title><path class="a" d="M452,1618H48a48.14,48.14,0,0,1-48-48V1185.51a48.14,48.14,0,0,1,48-48H452a48.14,48.14,0,0,1,48,48V1570A48.14,48.14,0,0,1,452,1618Zm-59.77-371.27H356.62v101.05H285.54v-65.44a35.61,35.61,0,0,0-35.61-35.61H214.38v243.36h35.55a35.61,35.61,0,0,0,35.61-35.61V1419H285.4v-0.14h0.14V1419h71.08v71.22H396a35.61,35.61,0,0,0,31.81-35.41V1282.36A35.6,35.6,0,0,0,392.23,1246.75Zm-205.07-5.39a35.54,35.54,0,1,0-35.53,35.55A35.54,35.54,0,0,0,187.17,1241.36ZM116,1304.06v60.11a0.07,0.07,0,0,1,.06,0H116V1457a35.55,35.55,0,0,1-43.85,32.46c0,0.2,0,.43,0,0.65a57.43,57.43,0,0,0,28.75,49.79,55.9,55.9,0,0,0,13.19,5.56,57,57,0,0,0,15.57,2.16q1.8,0,3.54-.12a0.06,0.06,0,0,0,.08,0,57.45,57.45,0,0,0,53.86-57h0.1v-186.5H116Z" transform="translate(0 -1137.51)"/></svg>