<svg xmlns="http://www.w3.org/2000/svg" viewBox="0 0 320.7 192.06"><defs><style>.a{fill:#fff;}</style></defs><title>Logos2</title><path class="a" d="M166,192c-60.4-.16-108-16.68-150.09-49.13-4.77-3.67-9.22-7.75-13.78-11.68a7.19,7.19,0,0,1-2-2.44,2.72,2.72,0,0,1,.27-2.37,2.84,2.84,0,0,1,2.3-.73A9,9,0,0,1,5.59,127a308.58,308.58,0,0,0,99.85,37,260.32,260.32,0,0,0,44.76,4.93c10.18,0.13,20.39.51,30.53-.13A306,306,0,0,0,266.17,151c5.66-2.05,11.2-4.4,16.82-6.58,1.15-.44,2.46-1.22,3.51-1a8.21,8.21,0,0,1,4.37,2.32c1.26,1.51.55,3.5-.86,4.78a53.37,53.37,0,0,1-5.47,4.2c-22.73,15.8-48,25.62-74.88,31.63C192.95,190.16,176.05,192.44,166,192Z"/><path class="a" d="M137.42,77.26Q140.2,65.55,143,53.84q5.34-22.61,10.67-45.22c1.16-4.88,2.28-5.75,7.34-5.79,2.48,0,5-.05,7.45,0,4.3,0.11,5.44.94,6.45,5.17q5.6,23.37,11.08,46.76c1.85,7.83,3.69,15.65,6.07,23.58,0.28-.85.61-1.68,0.83-2.54q8.57-33,17.13-66c0.27-1,.6-2,0.89-3.06A4.9,4.9,0,0,1,216,2.86c3.46-.05,6.92-0.05,10.37,0,2,0,3,1,2.72,3a19.85,19.85,0,0,1-.73,3.36q-12.89,41.17-25.81,82.33c-1.52,4.85-2.51,5.56-7.62,5.59-2.39,0-4.79,0-7.18,0-4.72-.06-5.9-1-7-5.53q-6.11-25-12.18-50c-1.42-5.84-2.84-11.67-4.78-17.55-1.26,5.15-2.53,10.29-3.76,15.44q-6.18,25.82-12.35,51.65c-1.23,5.13-2.37,6-7.71,6.05-2.13,0-4.26,0-6.38,0-5.42,0-6.44-.74-8-5.83Q117,63.14,108.42,34.94c-2.7-8.89-5.43-17.77-8-26.69-1.32-4.52-.56-5.42,4-5.43,2.66,0,5.32,0,8,0,4.23,0.06,5.5.93,6.58,5.08,3.07,11.73,6,23.49,9,35.23q4.07,16,8.11,31.91c0.19,0.75.46,1.48,0.7,2.22h0.61Z"/><path class="a" d="M72.44,44.55c-0.31-5.47-.21-10.46-1-15.32C70,19.95,64.54,15.61,54.54,14.81S35.19,16.19,26,19.87c-6.31,2.54-6.69,2-7.11-4.62C18.6,10.1,20.72,7.54,25.29,5.7c12.63-5.07,25.55-7,39-4.65,14.91,2.57,24,12.29,24.76,27.52,0.59,12.38.54,24.81,0.41,37.21-0.08,7.43.78,14.47,4.73,20.91,1.37,2.23.67,4.06-1.41,5.46s-4.24,2.9-6.42,4.26c-2.63,1.64-4.62,1.51-6.56-1-2.48-3.19-4.57-6.68-7-10.26-0.91.95-1.89,2-2.94,3-10.24,9.87-22.55,13.16-36.26,10.45-15-3-22.54-15.69-20.71-30.85,1.69-14.1,12.14-23.73,27-25.78,9.82-1.35,19.43-.14,29,1.84C69.88,44.08,70.83,44.24,72.44,44.55Zm0,11.88c-9.28-2.07-18.21-3.49-27.26-1.86-11.22,2-16.32,10.33-13.48,21.33A11.83,11.83,0,0,0,41,85.09a28.4,28.4,0,0,0,20.29-3.15c5.56-3,9.37-7.61,10.3-14C72.08,64.23,72.11,60.5,72.39,56.43Z"/><path class="a" d="M268.91,100a72,72,0,0,1-25.38-4.77c-6.6-2.64-8.75-7.13-6.8-14,0.69-2.43,2.46-2.11,4.28-1.51,4.61,1.54,9.14,3.41,13.84,4.55,7.64,1.85,15.44,2.32,23.16.35,5.1-1.31,9.41-3.77,10.87-9.39,1.33-5.07-.29-9.85-4.85-12.37A77.45,77.45,0,0,0,272.58,58c-5.91-2.11-12-3.68-17.84-6-8.73-3.55-14.7-9.87-16.5-19.37-2.2-11.6,3.11-22,14.07-27.79,9.22-4.89,19.11-5.74,29.22-4A84.23,84.23,0,0,1,295.61,4.5c5.46,1.95,7.84,8.25,5.59,13.59-0.85,2-2.42,1.62-4,1.09-4.28-1.39-8.5-3.1-12.89-4a41.7,41.7,0,0,0-19.76.29c-7.41,2-10.89,7.77-8.94,14.4a9.92,9.92,0,0,0,5.28,6.37,116.33,116.33,0,0,0,11.24,4.69c5.83,2.09,11.83,3.72,17.6,5.95,9.79,3.77,16.15,10.62,16.92,21.44,0.79,11.17-4,19.78-13.42,25.68C285.81,98.57,277.52,99.82,268.91,100Z"/><path class="a" d="M287.41,131.92c-7,.68-14.9,1.49-22.82,2.16-1.06.09-2.17-.54-3.26-0.84,0.56-1,.86-2.38,1.71-3A47,47,0,0,1,280,122.87a76.7,76.7,0,0,1,32.84-.79c0.52,0.1,1,.27,1.54.41,6.08,1.67,6.6,2.8,6.31,8.94A68.71,68.71,0,0,1,306,171.11a44.91,44.91,0,0,1-6.12,6.25c-0.85.74-2.33,0.75-3.53,1.1a11.9,11.9,0,0,1,.09-3.47c2.83-8.47,5.88-16.86,8.62-25.35a33.25,33.25,0,0,0,1.39-8.34c0.29-5.26-2.33-7.86-8.31-8.52C294.89,132.42,291.63,132.25,287.41,131.92Z"/></svg>