<svg xmlns="http://www.w3.org/2000/svg" viewBox="0 0 302.5 251.05"><title>Logos1</title><path d="M302.5,207.52c-2.81,4.25-4.39,3.81-7.91,2.69a16.26,16.26,0,0,0-21.45,15.53c-0.11,6.75,0,13.51-.05,20.27,0,3-1.39,4.65-3.88,4.85-3.35.27-5.23-1.58-5.23-5.23q0-20,0-40.07c0-3,1.55-5,4.1-5.31s4.27,1.15,5,4.07a12.33,12.33,0,0,0,.5,1.27l2.24-1.4a25.14,25.14,0,0,1,21.2-2.89c2,0.59,3.66,2.57,5.48,3.91v2.33Z"/><path d="M174.72,0c-0.06,6.28-.19,12.55-0.13,18.83,0,1.92-.51,2.53-2.47,2.49-6.13-.12-12.26-0.1-18.38,0-1.74,0-2.27-.49-2.26-2.24,0.06-6.36,0-12.72-.08-19.08h23.32Z"/><path d="M222.64,73.08c-7.34-14.91-4.86-28.51,4.69-41.59,8.77,5.48,15.9,12.08,18.6,22.38,0.91,3.47.81,3.21,4.44,2.94,9.51-.71,18.83-0.32,26.54,6.47-4.65,12.67-12.87,20.09-27,21.45-2.24.22-4.52,0.11-6.71,0.53A3.9,3.9,0,0,0,241,87.41a120.93,120.93,0,0,1-16.52,27.45c-15.32,18.94-35.06,31-58.41,37.41a154.38,154.38,0,0,1-34,5c-12.2.55-24.22-.3-35.83-4.13-23.3-7.7-37.18-24.15-43.06-47.62a68.84,68.84,0,0,1-2-24.9c0.42-3.6.29-3.62,4-3.62H205.84a37.63,37.63,0,0,0,14.31-2.65C221,74,221.78,73.51,222.64,73.08Z"/><path d="M41.82,205.85c0-3.14,0-5.61,0-8.07,0-5,0-9.95,0-14.92,0-2.65,1.4-4.26,3.71-4.54a4.4,4.4,0,0,1,5.11,3.63,11.51,11.51,0,0,1,.29,2.53c0,13.21,0,26.42,0,39.63,0.08,15.27-9.6,23.28-18.15,25.86C19.17,254.08,4.58,246.09.91,232.51a25.42,25.42,0,0,1,18.35-31.57,25.06,25.06,0,0,1,20.26,3.48C40.09,204.79,40.66,205.13,41.82,205.85Zm-0.17,19.78a16.51,16.51,0,0,0-16.28-16.36c-8.79.05-16.54,7.72-16.26,16.43A16.33,16.33,0,0,0,25.8,241.82C34.47,241.43,41.69,234.4,41.65,225.63Z"/><path d="M218.37,230.82a41.14,41.14,0,0,0,3.48,5.54c5.58,6.42,15,7.28,22.07,2.17,3-2.17,5.95-1.89,7.42.72a4.59,4.59,0,0,1-1.22,6.05,22.72,22.72,0,0,1-13.53,5.54c-12.25.7-22.35-5.21-26.24-16-5.37-14.84,2.34-29,15.8-33.43a25.36,25.36,0,0,1,32.58,18.1,26.31,26.31,0,0,1,.66,5.52c0.08,3.36-1.74,5.13-5.17,5.14q-16.31,0-32.62,0H218.9Zm0.41-10h30.61c-1.51-6.54-8.79-11.81-15.63-11.58C226.66,209.52,219.74,214.78,218.78,220.86Z"/><path d="M169.39,218.67c1.28-.79,2.19-1.32,3.07-1.89q11.91-7.74,23.82-15.48c2.28-1.48,4.33-1.43,6,0,2.45,2.11,2.15,5.6-.71,7.48-5.38,3.54-10.8,7-16.2,10.53-0.71.46-1.39,1-2.32,1.6,0.64,0.84,1.15,1.58,1.73,2.24,5.81,6.57,11.71,13.07,17.4,19.75a6.43,6.43,0,0,1,1.43,4.56,5.19,5.19,0,0,1-2.92,3.16c-1.86.78-3.72,0.16-5.2-1.52-5.11-5.85-10.29-11.63-15.45-17.43-1.64-1.85-3.3-3.68-5.06-5.65a46,46,0,0,0-4.78,3.24,3.86,3.86,0,0,0-1.06,2.59c-0.1,4.66,0,9.32-.06,14,0,3.38-1.51,5-4.42,5S160,249,160,245.74q0-31.11,0-62.21c0-3.23,1.86-5.24,4.67-5.23s4.43,1.85,4.44,5.09c0,10.64,0,21.28,0,31.92C169.13,216.28,169.28,217.25,169.39,218.67Z"/><path d="M81.18,250.88c-13.43.77-25.7-11.75-25.34-25.39,0.37-14.23,11.25-25.25,25.55-25.3,14,0,25.37,12,25.27,25.88C106.57,239.29,94.57,251.67,81.18,250.88Zm0-9.14c7.81,0.7,16.43-6.81,16.34-16.12A16.25,16.25,0,1,0,65,225.48,16.1,16.1,0,0,0,81.15,241.74Z"/><path d="M137.16,250.87c-12.55.79-25.92-10-25.63-25.55,0.2-10.57,5.34-18.47,14.95-22.82,9.21-4.17,18.16-3,26.23,3.26a6.51,6.51,0,0,1,2.17,3.13,4.07,4.07,0,0,1-1.9,4.84c-1.77,1.06-3.48.76-5.27-.2-2.63-1.41-5.25-3.13-8.09-3.78-6.47-1.48-11.82,1.1-15.71,6.22a15.07,15.07,0,0,0-1.49,16.87c2.9,5.71,7.66,8.72,14.19,8.92A15.79,15.79,0,0,0,147,238.34c2.55-1.94,5.45-1.77,7,.31s1.19,4.89-1.35,6.92A22.62,22.62,0,0,1,137.16,250.87Z"/><path d="M162.89,72.17c-3.1,0-6.21-.05-9.31,0-1.44,0-2.1-.35-2.08-1.94,0.07-5.66.06-11.33,0-17,0-1.45.55-1.87,1.92-1.86q9.66,0.07,19.32,0c1.47,0,1.83.59,1.82,1.94q-0.08,8.5,0,17c0,1.46-.53,1.88-1.91,1.86C169.41,72.12,166.15,72.17,162.89,72.17Z"/><path d="M190.58,72.17c-3.18,0-6.36,0-9.54,0-1.3,0-2-.26-2-1.79,0.07-5.74.06-11.48,0-17.22,0-1.3.43-1.79,1.74-1.78q9.77,0.06,19.54,0c1.32,0,1.75.5,1.74,1.79,0,5.74-.06,11.48,0,17.22,0,1.53-.69,1.8-2,1.78C196.94,72.13,193.76,72.17,190.58,72.17Z"/><path d="M107.76,25.81c3.18,0,6.37,0,9.55,0,1.29,0,1.79.41,1.78,1.74q-0.07,8.61,0,17.23c0,1.45-.57,1.89-1.92,1.88q-9.66-.05-19.33,0a1.49,1.49,0,0,1-1.78-1.78q0.07-8.73,0-17.46c0-1.25.52-1.61,1.68-1.59C101.09,25.83,104.43,25.81,107.76,25.81Z"/><path d="M107.36,72.17c-3.18,0-6.36,0-9.54,0-1.31,0-1.76-.46-1.75-1.77q0.07-8.61,0-17.22c0-1.28.39-1.81,1.72-1.8q9.77,0.06,19.54,0c1.3,0,1.76.47,1.75,1.77,0,5.74-.06,11.48,0,17.22,0,1.51-.65,1.82-2,1.8C113.88,72.13,110.62,72.17,107.36,72.17Z"/><path d="M80,72.17c-3.1,0-6.21-.06-9.31,0-1.53,0-2.24-.34-2.21-2.05,0.09-5.59.08-11.18,0-16.76,0-1.54.54-2,2-2q9.54,0.09,19.09,0c1.57,0,2,.58,2,2.05q-0.1,8.38,0,16.76c0,1.55-.53,2-2,2C86.37,72.11,83.18,72.17,80,72.17Z"/><path d="M162.83,46.62c-3.11,0-6.21,0-9.32,0-1.51,0-2-.54-2-2,0.06-5.67,0-11.34,0-17,0-1.26.38-1.81,1.73-1.8q9.79,0.07,19.57,0c1.31,0,1.77.44,1.76,1.76,0,5.75-.06,11.49,0,17.24,0,1.49-.63,1.87-2,1.85C169.36,46.59,166.09,46.62,162.83,46.62Z"/><path d="M135.15,72.16c-3.11,0-6.22,0-9.32,0-1.4,0-1.94-.48-1.93-1.89q0.06-8.51,0-17c0-1.4.52-1.9,1.93-1.89q9.56,0.07,19.11,0c1.29,0,1.82.47,1.81,1.77q0,8.62,0,17.25a1.5,1.5,0,0,1-1.81,1.77C141.67,72.13,138.41,72.16,135.15,72.16Z"/><path d="M135.22,46.62c-3.1,0-6.2,0-9.3,0-1.51,0-2-.58-2-2.06q0.07-8.37,0-16.75c0-1.45.42-2.07,2-2.05q9.42,0.11,18.84,0c1.52,0,2.05.5,2,2-0.05,5.58-.06,11.16,0,16.75,0,1.67-.69,2.15-2.23,2.11C141.43,46.58,138.33,46.62,135.22,46.62Z"/></svg>