<svg xmlns="http://www.w3.org/2000/svg" viewBox="0 0 341.25 341.21"><defs><style>.a{fill:#fff;}</style></defs><title>Logos2</title><path class="a" d="M181.39,341.21H16.07C3.38,336.71,0,327.34,0,314.51,0.31,217.73.17,121,.17,24.17c0-17.09,6.92-24,24-24C121,0.16,217.73.3,314.51,0c12.78,0,22.3,3.2,26.74,16V324.81c-2.69,8.24-8.28,13.58-16.4,16.4H236V209.78c3.37-.19,5.82-0.43,8.27-0.44,10,0,20-.22,30,0.07,4.57,0.13,6.46-1.43,7-6,1.53-13.55,3.32-27.08,5.25-40.58,0.63-4.41-.51-6.27-5.22-6.2-12.52.19-25,.08-37.56,0-2.39,0-4.79-.27-7.35-0.43,0-13.09-.42-25.38.12-37.63,0.48-10.89,6.06-16.62,17.1-17.66a259.73,259.73,0,0,1,28.62-.8c5,0.08,6.94-1.41,6.78-6.52C288.8,84.74,289,75.86,289,67c0-4.64,0-9.29,0-14.19-7.38-.58-13.25-1.33-19.13-1.44-10.69-.19-21.46-0.79-32.07.17-28.3,2.57-48.47,20.75-54.09,48.75-1.77,8.84-1.9,18.05-2.25,27.11-0.36,9.47-.08,19-0.08,28.92-3.34.15-5.78,0.34-8.23,0.35-10.24,0-20.49-.15-30.72.19-1.82.06-5.09,2.19-5.12,3.42-0.35,16.07-.23,32.16-0.23,49.12h44.3V341.21Z"/></svg>