<svg xmlns="http://www.w3.org/2000/svg" viewBox="0 0 420.9 407.3"><title>Logos1</title><path d="M249.32,301.11c7.66-1.39,14.73-2.33,21.61-4a152.14,152.14,0,0,0,20.94-6.48c30.56-12.43,46.17-36.33,51-68.08,2-13.38,2.89-26.82.45-40.29a77,77,0,0,0-17.47-37c-2.13-2.49-2.31-4.47-1.41-7.53,4.74-16.24,3.26-32.25-2.33-48.06-1-2.72-2.51-3.55-5.17-3.52-10.06.12-19.38,3.21-28.26,7.49-7.48,3.61-14.5,8.15-21.92,11.9-2.25,1.14-5.34,1.94-7.69,1.38a205.12,205.12,0,0,0-97.5,0,10.59,10.59,0,0,1-7.23-1.26c-13.84-8.45-27.87-16.35-44.17-19.06-0.33-.05-0.65-0.14-1-0.18-8.51-1.24-9.5-.68-12,7.63-4.44,15-5.21,30.1-.48,45.27a5.35,5.35,0,0,1-.74,4.37c-18.77,21.55-22.56,47-18.67,74.07a133.86,133.86,0,0,0,7.28,28.93c10.61,27.54,32.43,42.18,60,49.34,8.5,2.21,17.23,3.53,26.54,5.4-7,7.54-10.72,16.41-12.47,26.21-0.17.94-1.73,1.92-2.84,2.35-22.29,8.58-44.17,5.19-58.1-17.82-6.63-11-15.72-19-28.68-21.51a27.66,27.66,0,0,0-10.31.43c-3.63.72-3.94,3.36-1.68,6a24.18,24.18,0,0,0,5.61,4.92C73.9,308.66,81,318.8,85.81,330.57c7.86,19.24,23,28,42.67,29.38,9.54,0.69,19.21-.58,29.17-1,0.05,0.58.25,1.86,0.26,3.14,0.09,11,.18,22,0.2,33,0,9.42-6.42,14.62-15.15,11-14.12-5.79-28.61-11.34-41.55-19.27C43.28,351.21,9,299.2,1.33,231.37c-12-105.49,57.9-202.26,161.77-226,103.52-23.68,208.75,33.06,245.19,132.2,40.09,109.08-18.78,231.58-129,268.36-10.5,3.51-16.57-.8-16.56-11.83,0-15.5-.09-31,0.18-46.5C263.24,330.81,262,314.58,249.32,301.11Z"/><path d="M141,341.7c-1.65.72-3.39,2.16-4.92,2s-2.77-2-4.15-3.18c1.58-.88,3.12-2.33,4.77-2.46,1.38-.11,2.88,1.31,4.33,2Z"/><path d="M110.12,330.58c-2.49,1.42-4.07,2.82-4.57,2.51a19.8,19.8,0,0,1-4.56-4.37c-0.11-.14,2-2.67,2.35-2.51A57.55,57.55,0,0,1,110.12,330.58Z"/><path d="M119.29,342.33l-4.36-4.79c1.21-.82,2.8-2.59,3.55-2.28,1.84,0.75,3.3,2.45,4.92,3.76Z"/><path d="M152.73,334.72l3.93,3.57c-1.72,1.22-3.32,2.84-5.24,3.45-0.78.25-2.27-1.71-3.43-2.66Z"/><path d="M94.87,322.87c-1.8-2.74-3.13-4.26-3.76-6-0.19-.54,1.54-1.76,2.39-2.67a30.81,30.81,0,0,1,3.66,4.61C97.43,319.29,96.18,320.62,94.87,322.87Z"/><path d="M90,307.11c-1.82,1.15-3,2.32-3.4,2.09A13.71,13.71,0,0,1,83,305.79c-0.17-.23,1.52-2.31,1.64-2.24A61.48,61.48,0,0,1,90,307.11Z"/></svg>