<svg xmlns="http://www.w3.org/2000/svg" viewBox="0 0 316.59 383.17"><title>Logos1</title><path d="M170.22,0c3.14,0.43,6.31.73,9.42,1.31,18.37,3.45,30.19,14.55,36.7,31.74a105.18,105.18,0,0,1,6.3,32.8c0.44,9.8.69,19.63,0.37,29.43a62.65,62.65,0,0,0,12,39.41c6.75,9.45,14.12,18.45,21.22,27.65,11.36,14.71,21.16,30.31,27.47,47.91,4.35,12.13,6.73,24.62,5.66,37.51-0.53,6.43-2,12.78-3.08,19.16h-0.58a4.25,4.25,0,0,0,.72.51,18.7,18.7,0,0,1,10.88,11.94c1.45,4.57,2.56,9.26,3.72,13.92a26.16,26.16,0,0,0,6,11.47,53.77,53.77,0,0,1,6.36,8.78c5.66,9.69,3.77,17.61-5.8,23.48-5.31,3.25-11,5.92-16.54,8.74-6.3,3.21-12.58,6.45-17.87,11.22-2.4,2.17-4.57,4.61-6.76,7-7.56,8.27-16.32,14.68-27.25,17.78-15.57,4.42-29.9-1.6-37.26-15.65-0.35-.66-0.66-1.35-0.94-2-1.32-3.22-1.33-3-4.75-3.26-8.21-.65-16.44-1.27-24.59-2.4-8.73-1.22-17.32-.63-25.93.72-7.46,1.17-14.92,2.34-22.37,3.55a2,2,0,0,0-1.27.81c-5.84,11-15.64,14.93-27.33,15.28s-22.34-3-32.51-8.28c-7.74-4-16-5.85-24.52-7-7.66-1.07-15.32-2.17-23-3.35a20.43,20.43,0,0,1-4.44-1.43c-7.38-3-11.08-9-10.16-16.89A47.62,47.62,0,0,1,2.47,331c1.75-4.78,1.69-9.49,1.08-14.39-0.64-5.13-1.45-10.31-1.34-15.44,0.15-7.08,4.08-12.25,10.24-15.48A80.5,80.5,0,0,1,23,281.4a21.42,21.42,0,0,0,10.37-7.65c2.85-3.86,6-7.51,9-11.28a2.25,2.25,0,0,0,.55-1.45c-2.09-16.1,1.51-31.29,7.34-46.12A201.85,201.85,0,0,1,74.4,171.45c5.12-7.16,10.74-14,16-21a86.16,86.16,0,0,0,16.12-36.69c2-11.16,1.21-22.28.5-33.45-0.89-13.88-1.07-27.74,2.41-41.37,5.47-21.45,19.42-33.68,41-37.42,3.93-.68,7.91-1,11.87-1.51h7.88Zm23.24,116.3a28.6,28.6,0,0,1-13,9.54,73.12,73.12,0,0,0-14.09,7.3,35.29,35.29,0,0,1-4.44,2.41c-9.91,4.32-19.52,4.47-28.45-2.45-2.47-1.91-4.66-4.17-7.14-6.07-2.18-1.68-4.57-3.08-7.07-4.74a119,119,0,0,1-8.68,36.31c-5.73,14.17-11.83,28.2-18.17,42.1S81.62,228.9,80,244.08c-0.27,2.61-.45,5.24-0.71,8.25-0.67-1-1.11-1.58-1.51-2.2-5.92-9.29-7.44-19.47-6.06-30.21,1.35-10.55,5.18-20.27,10.06-29.63,2.11-4,4.09-8.14,6.07-12.24a17.14,17.14,0,0,0,.8-2.67l-0.58-.25c-0.7,1.13-1.42,2.26-2.11,3.4-7,11.62-13.5,23.51-17.3,36.64-2.38,8.24-3.64,16.6-2.27,25.17C68.38,252.27,75,261.1,85,267.52c8.79,5.66,17.44,11.48,24.69,19.12,4.77,5,9.06,10.38,10.86,17.26,1.84,7.06-1.37,12.26-8.37,13.68-1.26.26-2.56,0.34-4,.52a8.54,8.54,0,0,0,.43.76q4.89,6.64,9.79,13.27a4.35,4.35,0,0,0,1.08,1,63.64,63.64,0,0,0,33,10.87c18.86,0.76,35.57-5.45,50.93-15.91a3.53,3.53,0,0,0,1.31-1.71c3-9.56,5.17-19.24,5.39-29.36a86.69,86.69,0,0,1,3.63-24.39c2.29-7.23,6.11-13.29,13.37-16.47a3.14,3.14,0,0,0,2.09-2.89c1-7.74,6.22-12,13.9-11.16,10.15,1.06,19.06,5.29,27.09,11.42,3.86,3,5.76,6.85,4.36,11.83,3.09,0.55,3.4.32,3.72-2.65,0.52-4.83-1.51-8.62-4.86-11.85-4.19-4-9.24-6.79-14.39-9.37-1.43-.72-2.88-1.39-4.34-2.09a54.44,54.44,0,0,0,.89-20.07c-1.65-11.78-6.15-22.46-12.46-32.44a85.38,85.38,0,0,0-14.34-17.49,4.33,4.33,0,0,0-1.61-.53,3.65,3.65,0,0,0,.2,1.67c1,1.33,2.2,2.55,3.32,3.8,11.44,12.69,18.57,27.28,19.52,44.55a42,42,0,0,1-2.85,17.91c-2.36-.3-4.58-0.68-6.81-0.81a1.49,1.49,0,0,1-1.65-1.5,146.55,146.55,0,0,0-14.05-40.36A408.64,408.64,0,0,1,201.55,141C198.69,132.89,196.19,124.65,193.46,116.3ZM93.23,373.86c2.36-.22,4.74-0.32,7.08-0.68,18.57-2.8,23.33-20.75,17.15-32.13a46.36,46.36,0,0,0-2.59-4.77c-3.78-5.35-7.68-10.63-11.54-15.93-4.34-6-9.1-11.64-12.92-17.91-5.32-8.74-9.91-17.92-14.86-26.88a30.7,30.7,0,0,0-9.8-10.68c-6.29-4.24-14.68-5.35-21.1,2.48-2.49,3-4.91,6.16-7.21,9.35a26,26,0,0,1-13.08,9.55,71.71,71.71,0,0,0-10,4.06c-4,2.07-6.78,5.5-6.91,10.05a85.79,85.79,0,0,0,1,14.32c0.85,6.09,1.19,12-1.22,17.88a34.42,34.42,0,0,0-1.73,7.08c-1.54,8.71,1.61,13.46,10.19,15.52L16,355.25c7.11,1,14.21,2,21.33,3,9.28,1.2,18.29,3.21,26.7,7.55C73.17,370.49,82.79,373.61,93.23,373.86ZM228.66,261c-0.46.19-.69,0.27-0.9,0.38-0.38.21-.75,0.44-1.12,0.68-3.9,2.56-6.13,6.33-7.64,10.59-2.53,7.14-3.17,14.61-3.8,22.08-0.57,6.83-.33,13.75-2.18,20.45-2.21,8-4.48,16-6.58,24-1.57,6-2.81,12.11-1.94,18.34,1.83,13.11,14.56,22.26,28,20.45,9.38-1.27,17.33-5.47,24.29-11.62,3.31-2.92,6.22-6.31,9.26-9.53,6.59-7,14.74-11.64,23.21-15.89,5.79-2.9,11.66-5.75,17.12-9.2,5.66-3.58,6.71-8,3.55-13.85a64.37,64.37,0,0,0-7.43-10.74,30.24,30.24,0,0,1-6.24-12.21C295,290.27,294,285.58,292.5,281a13.9,13.9,0,0,0-11.87-10.1,43.92,43.92,0,0,0-7.85-.15,3.72,3.72,0,0,0-2.22,1,42.76,42.76,0,0,1-18.21,10.73c-8.85,2.47-15.78-.53-20.11-8.62A34,34,0,0,1,228.66,261Zm-80-177.32c-6.11.07-11.64,2.64-16.57,6.82-4,3.39-8.12,6.62-12.2,9.91-0.92.74-1.92,1.4-2.83,2.15-3,2.47-4.09,5.65-2.58,9.18a15.57,15.57,0,0,0,3.91,5.83c6.33,5.24,12.65,10.6,19.51,15.09,7.22,4.73,15.29,4.12,22.72.3s14.63-8.25,22.41-11.54a19.72,19.72,0,0,0,8.92-8.07c3.37-5.46,2.18-10.79-3.25-14.19a29.17,29.17,0,0,0-5-2.42c-6.87-2.63-13.77-5.1-20.1-9A28.6,28.6,0,0,0,148.66,83.67Zm39.08,11.59c8.57-9.72,7.69-28.18-1.68-37.27-6.78-6.58-16-6.76-22.81-.18C156.82,64.06,155,72,155.73,80.66a1.52,1.52,0,0,0,.7,1.13c3,1,6,1.95,9.06,2.94,0-.7-0.09-1.25-0.11-1.8-0.18-4.22.53-8.24,3.07-11.73,3.43-4.72,8.8-4.53,11.75.51,3.11,5.32,3.16,11,.85,16.57a16.61,16.61,0,0,1-2.55,3.38Zm-53.2-10.44c2.1-.87,4.39-1.77,6.64-2.8a1.7,1.7,0,0,0,.67-1.36,53.86,53.86,0,0,0-.57-8c-1.06-5.44-3.19-10.39-7.84-13.83a9.45,9.45,0,0,0-12.38.41,17,17,0,0,0-4.88,7.2,29.66,29.66,0,0,0-1.35,16c0.91,5,2.7,9.57,6.51,13.33l4.84-3.69c-4-3.93-4.86-8.7-4.28-13.77a14,14,0,0,1,1.84-5.41c1.76-3,4.71-3.21,7-.57a13.09,13.09,0,0,1,2.65,4.86A61.38,61.38,0,0,1,134.55,84.82Z"/><path d="M146.64,124.68c-8-.24-14.77-3.55-20.81-8.5-2-1.66-4-3.44-5.85-5.26a6,6,0,0,1-1.43-2.35,4.57,4.57,0,0,1,.27-1.91,6.46,6.46,0,0,1,1.82,1c1.84,1.93,3.45,4.09,5.39,5.89a36.24,36.24,0,0,0,12.16,7.58c7.19,2.64,14.11,1.39,21-1.32a80,80,0,0,0,20.63-12.4,12.94,12.94,0,0,0,2-2.22c0.74-1,1.6-1.8,2.75-.95a3.51,3.51,0,0,1-.9,2.44,91.11,91.11,0,0,1-10.11,8c-6.51,4.08-13.36,7.59-21,9.23C150.62,124.28,148.62,124.42,146.64,124.68Z"/><path d="M153,91.14c2-1.57,5.89-1.13,6.86.55a2.05,2.05,0,0,1-.48,1.61,1.33,1.33,0,0,1-1.23.19C156.53,92.8,154.92,92,153,91.14Z"/><path d="M144.58,91.18a46.58,46.58,0,0,1-5,2.25c-0.53.18-1.35-.51-2-0.81A5.4,5.4,0,0,1,138.74,91C140.92,89.64,143,89.68,144.58,91.18Z"/></svg>