<svg xmlns="http://www.w3.org/2000/svg" viewBox="0 0 500 500"><defs><style>.a{fill:#fff;}.b{fill:#e5e5e5;}.c{font-size:68.72px;font-family:Roboto;}.c,.d{fill:#333;}</style></defs><title>no_image</title><rect class="a" y="0.26" width="500" height="499.74"/><path class="b" d="M217.76,294.26c0-20,2.24-35.5,6.73-47a73.49,73.49,0,0,1,21.83-29.87q15.1-12.65,23-23.15a37.79,37.79,0,0,0,7.86-23.15q0-30.81-26.53-30.81c-8.16,0-14.76,2.85-19.79,8.84s-7.69,14.14-8,24.14h-69c0.27-27,8.84-48.25,25.71-63.42s40.54-22.68,71-22.68,53.83,7,70.5,21.05,25,34,25,59.8a69.65,69.65,0,0,1-6.73,30.82q-6.73,13.88-21.63,28.37L294.28,249c-6.67,6.4-11.29,12.92-13.88,19.65s-4,15.57-4.29,25.57H217.76Zm-8.37,62.11q0-15.1,10.92-24.79t27.24-9.69q16.32,0,27.24,9.69t10.92,24.79q0,15.11-10.92,24.79t-27.24,9.69q-16.33,0-27.24-9.69T209.39,356.37Z"/><text class="c" transform="translate(89.29 239.04)">NO I<tspan x="133.54" y="0">M</tspan><tspan x="194.37" y="0">A</tspan><tspan x="240.48" y="0">GE</tspan><tspan x="51.2" y="82.46">FOUND</tspan></text><path class="d" d="M468,32V468H32V32H468M500,0H0V500H500V0h0Z"/></svg>