<?xml version="1.0" encoding="utf-8"?>
<!-- Generator: Adobe Illustrator 19.0.0, SVG Export Plug-In . SVG Version: 6.00 Build 0)  -->
<svg version="1.1" baseProfile="basic" id="Layer_1"
	 xmlns="http://www.w3.org/2000/svg" xmlns:xlink="http://www.w3.org/1999/xlink" x="0px" y="0px" viewBox="0 0 1000 1000"
	 xml:space="preserve">
<style type="text/css">
	.st0{fill:#FFFFFF;}
	.st1{fill:#E5E5E5;}
	.st2{fill:#333333;}
	.st3{fill:#999999;}
</style>
<rect x="4" y="0" class="st0" width="996" height="996"/>
<g>
	<path class="st1" d="M435.5,581c0-40,4.5-71.1,13.5-94.1c9-23,23.5-42.9,43.7-59.8c20.1-16.9,35.4-32.3,45.9-46.3
		c10.5-14,15.7-29.4,15.7-46.3c0-41.1-17.7-61.6-53.1-61.6c-16.3,0-29.5,5.8-39.6,17.7c-10.1,12-15.4,28.3-15.9,48.3H307.8
		c0.5-54,17.7-96.6,51.4-126.9c33.7-30.3,81.1-45.4,142-45.4c60.7,0,107.7,14.1,141,42.1c33.3,28,50,67.9,50,119.6
		c0,22.6-4.5,43.1-13.5,61.6c-9,18.5-23.4,37.4-43.3,56.7l-46.9,43.7c-13.3,12.8-22.6,25.9-27.8,39.4c-5.2,13.5-8,30.2-8.6,51.2
		H435.5z M418.8,705.1c0-20.1,7.3-36.7,21.8-49.6c14.6-12.9,32.7-19.4,54.5-19.4c21.8,0,39.9,6.5,54.5,19.4
		c14.6,12.9,21.8,29.5,21.8,49.6c0,20.1-7.3,36.7-21.8,49.6c-14.6,12.9-32.7,19.4-54.5,19.4c-21.8,0-39.9-6.5-54.5-19.4
		C426.1,741.8,418.8,725.2,418.8,705.1z"/>
</g>
<g>
	<path class="st2" d="M267.6,470.4h-23.4l-34.6-60.8v60.8H186v-97.7h23.6l34.6,60.8v-60.8h23.5V470.4z"/>
	<path class="st2" d="M365.2,423.6c0,9.5-1.8,18-5.3,25.3c-3.5,7.3-8.6,13-15.1,16.9c-6.5,4-13.9,5.9-22.2,5.9
		c-8.3,0-15.7-1.9-22.1-5.7s-11.5-9.3-15.1-16.4c-3.6-7.1-5.5-15.3-5.7-24.5v-5.5c0-9.6,1.8-18,5.3-25.3c3.5-7.3,8.5-13,15.1-16.9
		c6.6-4,14-6,22.4-6c8.3,0,15.7,2,22.1,5.9c6.5,3.9,11.5,9.5,15.1,16.8c3.6,7.3,5.4,15.6,5.5,25V423.6z M341.3,419.5
		c0-9.7-1.6-17.1-4.9-22.1c-3.2-5-7.9-7.5-13.9-7.5c-11.8,0-18.1,8.9-18.7,26.6l-0.1,7.2c0,9.6,1.6,16.9,4.8,22.1
		c3.2,5.1,7.9,7.7,14.2,7.7c5.9,0,10.5-2.5,13.8-7.6c3.2-5.1,4.9-12.3,4.9-21.8V419.5z"/>
	<path class="st2" d="M436.7,470.4h-23.5v-97.7h23.5V470.4z"/>
	<path class="st2" d="M484,372.7l21.8,68l21.7-68h31v97.7h-23.6v-22.8l2.3-46.7l-23.6,69.5H498l-23.7-69.6l2.3,46.8v22.8h-23.6
		v-97.7H484z"/>
	<path class="st2" d="M630.2,452.2h-32.3l-5.6,18.3h-25.2l35.8-97.7h22.1l36.1,97.7h-25.3L630.2,452.2z M603.6,434h21L614,400.1
		L603.6,434z"/>
	<path class="st2" d="M746.9,458.4c-3.6,4-8.9,7.3-15.9,9.7c-7,2.5-14.6,3.7-23,3.7c-12.8,0-23-3.9-30.7-11.7
		c-7.7-7.8-11.7-18.7-12.3-32.7l-0.1-8.5c0-9.6,1.7-18,5.1-25.2c3.4-7.2,8.3-12.7,14.6-16.6c6.3-3.9,13.7-5.8,22-5.8
		c12.2,0,21.6,2.8,28.4,8.4c6.7,5.6,10.7,13.9,11.8,24.9h-22.7c-0.8-5.5-2.5-9.4-5.2-11.7c-2.7-2.3-6.5-3.5-11.4-3.5
		c-5.9,0-10.5,2.5-13.7,7.5c-3.2,5-4.9,12.2-4.9,21.5v5.9c0,9.8,1.7,17.1,5,22c3.3,4.9,8.6,7.3,15.7,7.3c6.1,0,10.7-1.4,13.7-4.1
		v-15.2H707v-16.2h39.9V458.4z"/>
	<path class="st2" d="M821.2,429h-37v23.4h43.8v18.1h-67.3v-97.7H828v18.2h-43.9v20.6h37V429z"/>
	<path class="st2" d="M349.9,596.4h-38v38.9h-23.6v-97.7h65.4v18.2h-41.8v22.5h38V596.4z"/>
	<path class="st2" d="M446.3,588.5c0,9.5-1.8,18-5.3,25.3c-3.5,7.3-8.6,13-15.1,16.9c-6.5,4-13.9,5.9-22.2,5.9
		c-8.3,0-15.7-1.9-22.1-5.7s-11.5-9.3-15.1-16.4c-3.6-7.1-5.5-15.3-5.7-24.5v-5.5c0-9.6,1.8-18,5.3-25.3c3.5-7.3,8.5-13,15.1-16.9
		c6.6-4,14-6,22.4-6c8.3,0,15.7,2,22.1,5.9c6.5,3.9,11.5,9.5,15.1,16.8c3.6,7.3,5.4,15.6,5.5,25V588.5z M422.3,584.4
		c0-9.7-1.6-17.1-4.9-22.1c-3.2-5-7.9-7.5-13.9-7.5c-11.8,0-18.1,8.9-18.7,26.6l-0.1,7.2c0,9.6,1.6,16.9,4.8,22.1
		c3.2,5.1,7.9,7.7,14.2,7.7c5.9,0,10.5-2.5,13.8-7.6c3.2-5.1,4.9-12.3,4.9-21.8V584.4z"/>
	<path class="st2" d="M535.1,537.6v64c0,7.2-1.5,13.5-4.6,18.8c-3.1,5.3-7.5,9.3-13.3,12.1c-5.8,2.8-12.6,4.2-20.5,4.2
		c-11.9,0-21.3-3.1-28.1-9.3s-10.3-14.6-10.5-25.4v-64.4h23.7v64.9c0.3,10.7,5.2,16,14.9,16c4.9,0,8.6-1.3,11.1-4
		c2.5-2.7,3.8-7,3.8-13.1v-63.8H535.1z"/>
	<path class="st2" d="M631.4,635.4h-23.4l-34.6-60.8v60.8h-23.6v-97.7h23.6l34.6,60.8v-60.8h23.5V635.4z"/>
	<path class="st2" d="M646.3,635.4v-97.7h31.5c8.6,0,16.4,2,23.3,5.9c6.9,3.9,12.3,9.4,16.1,16.6c3.9,7.1,5.8,15.1,5.9,24v4.5
		c0,8.9-1.9,17-5.7,24.1c-3.8,7.1-9.1,12.6-16,16.6c-6.9,4-14.5,6-23,6.1H646.3z M669.8,555.8v61.4h8.2c6.8,0,11.9-2.4,15.6-7.2
		c3.6-4.8,5.4-12,5.4-21.4v-4.2c0-9.4-1.8-16.6-5.4-21.3c-3.6-4.8-8.9-7.2-15.8-7.2H669.8z"/>
</g>
<path class="st3" d="M900,100v800H100V100H900 M1000,0H0v1000h1000V0L1000,0z"/>
</svg>
