<svg xmlns="http://www.w3.org/2000/svg" viewBox="0 0 500 500"><defs><style>.a{fill:#fff;}.b{fill:#e5e5e5;}.c{fill:#333;}</style></defs><title>no_image</title><rect class="a" y="0.26" width="500" height="499.74"/><path class="b" d="M217.76,294.26c0-20,2.24-35.5,6.73-47a73.49,73.49,0,0,1,21.83-29.87q15.1-12.65,23-23.15a37.79,37.79,0,0,0,7.86-23.15q0-30.81-26.53-30.81c-8.16,0-14.76,2.85-19.79,8.84s-7.69,14.14-8,24.14h-69c0.27-27,8.84-48.25,25.71-63.42s40.54-22.68,71-22.68,53.83,7,70.5,21.05,25,34,25,59.8a69.65,69.65,0,0,1-6.73,30.82q-6.73,13.88-21.63,28.37L294.28,249c-6.67,6.4-11.29,12.92-13.88,19.65s-4,15.57-4.29,25.57H217.76Zm-8.37,62.11q0-15.1,10.92-24.79t27.24-9.69q16.32,0,27.24,9.69t10.92,24.79q0,15.11-10.92,24.79t-27.24,9.69q-16.33,0-27.24-9.69T209.39,356.37Z"/><path class="c" d="M133.79,239H122.08l-17.31-30.4V239H93V190.19h11.78L122,220.59v-30.4h11.74V239Z"/><path class="c" d="M182.61,215.62A28.83,28.83,0,0,1,180,228.27a19.59,19.59,0,0,1-7.53,8.47,21,21,0,0,1-11.12,3,21.27,21.27,0,0,1-11.07-2.87,19.56,19.56,0,0,1-7.53-8.2,28,28,0,0,1-2.83-12.25v-2.75A28.94,28.94,0,0,1,142.49,201a19.54,19.54,0,0,1,7.55-8.47,22.35,22.35,0,0,1,22.26,0,19.9,19.9,0,0,1,7.57,8.41,28.12,28.12,0,0,1,2.73,12.5v2.25Zm-12-2q0-7.28-2.43-11.06a7.8,7.8,0,0,0-7-3.77q-8.86,0-9.36,13.29l0,3.59q0,7.18,2.38,11a7.79,7.79,0,0,0,7.08,3.86,7.7,7.7,0,0,0,6.88-3.79q2.42-3.79,2.45-10.9v-2.25Z"/><path class="c" d="M218.34,239H206.6V190.19h11.74V239Z"/><path class="c" d="M242,190.19l10.91,34,10.87-34h15.5V239H267.46V227.64l1.14-23.35L256.79,239H249l-11.84-34.79,1.14,23.39V239H226.53V190.19H242Z"/><path class="c" d="M315.11,229.92H299L296.15,239H283.57l17.92-48.85h11.07L330.61,239H318Zm-13.32-9.09h10.5L307,203.88Z"/><path class="c" d="M373.46,233a18.94,18.94,0,0,1-8,4.87A34.31,34.31,0,0,1,354,239.72q-9.6,0-15.33-5.87t-6.14-16.34l0-4.23a29.15,29.15,0,0,1,2.55-12.6,18.93,18.93,0,0,1,7.3-8.29,20.65,20.65,0,0,1,11-2.9q9.13,0,14.18,4.18t5.89,12.47H362.08q-0.6-4.09-2.62-5.84a8.45,8.45,0,0,0-5.7-1.74,7.69,7.69,0,0,0-6.84,3.76q-2.42,3.76-2.45,10.74v3q0,7.31,2.5,11t7.87,3.67q4.6,0,6.84-2V221h-8.19v-8.09h20V233Z"/><path class="c" d="M410.6,218.31H392.08V230H414V239H380.3V190.19H414v9.09H392.08v10.3H410.6v8.72Z"/><path class="c" d="M175,302H156V321.5H144.19V272.65h32.68v9.09H156V293h19V302Z"/><path class="c" d="M223.14,298.08a28.8,28.8,0,0,1-2.65,12.65,19.58,19.58,0,0,1-7.53,8.47,21,21,0,0,1-11.12,3,21.28,21.28,0,0,1-11.07-2.87,19.55,19.55,0,0,1-7.53-8.2,28,28,0,0,1-2.84-12.25V296.1A28.93,28.93,0,0,1,183,283.44a19.54,19.54,0,0,1,7.55-8.47,22.35,22.35,0,0,1,22.26,0,19.9,19.9,0,0,1,7.57,8.41,28.11,28.11,0,0,1,2.74,12.5v2.25Zm-12-2q0-7.28-2.43-11.06a7.8,7.8,0,0,0-7-3.77q-8.86,0-9.36,13.29l0,3.59q0,7.18,2.38,11a7.79,7.79,0,0,0,7.08,3.86,7.69,7.69,0,0,0,6.88-3.79q2.42-3.79,2.45-10.9V296Z"/><path class="c" d="M267.53,272.65v32a18.36,18.36,0,0,1-2.32,9.41,15,15,0,0,1-6.64,6.06,23.41,23.41,0,0,1-10.23,2.08q-8.93,0-14.06-4.63T229,304.86V272.65h11.84V305.1q0.2,8,7.45,8a7.22,7.22,0,0,0,5.54-2q1.88-2,1.88-6.54V272.65h11.78Z"/><path class="c" d="M315.68,321.5H304l-17.31-30.4v30.4H274.88V272.65h11.78l17.28,30.4v-30.4h11.74V321.5Z"/><path class="c" d="M323.13,321.5V272.65h15.74a23.15,23.15,0,0,1,11.64,2.94,20.65,20.65,0,0,1,8.07,8.29,25,25,0,0,1,2.94,12v2.25a25.16,25.16,0,0,1-2.83,12,20.73,20.73,0,0,1-8,8.32,22.64,22.64,0,0,1-11.49,3H323.13Zm11.78-39.76v30.7H339a9.16,9.16,0,0,0,7.78-3.61q2.72-3.61,2.72-10.72V296q0-7.08-2.72-10.67a9.32,9.32,0,0,0-7.92-3.59h-4Z"/><path class="c" d="M468,32V468H32V32H468M500,0H0V500H500V0h0Z"/></svg>