<svg xmlns="http://www.w3.org/2000/svg" viewBox="0 0 419.01 218.21"><title>Logos1</title><path d="M293.55,118h2c3.63,0,7.26-.07,10.89,0a41.73,41.73,0,0,0,10-1c7.31-1.6,12.9-5.46,16-12.46a41.66,41.66,0,0,0,3.42-17.61,9.68,9.68,0,0,0-2.91-6.76,15.15,15.15,0,0,0-10.73-4.44c-6.69-.22-13.4-0.13-20.1-0.15-1.39,0-1.49.08-1.75,1.48-0.42,2.25-.78,4.51-1.15,6.76q-2.48,14.85-4.95,29.7C294,114.87,293.79,116.29,293.55,118Z"/><path d="M101.29,117.86c0.8,0,1.4.09,2,.1,3.91,0,7.82,0,11.73,0a37.54,37.54,0,0,0,10.09-1.33,22,22,0,0,0,11.05-6.3,25.37,25.37,0,0,0,5.45-10.26,52.22,52.22,0,0,0,1.83-11,11,11,0,0,0-2.95-8.91,15.11,15.11,0,0,0-10.72-4.46c-6.7-.22-13.4-0.13-20.11-0.15-1.38,0-1.5.13-1.73,1.48q-1,5.77-2,11.55-2.27,13.62-4.51,27.24C101.36,116.41,101.35,117.06,101.29,117.86Z"/><path d="M209.5,218.21c-6.81-.18-13.69-0.2-20.54-0.6-7.47-.43-14.92-1.15-22.37-1.85-10.52-1-20.94-2.68-31.31-4.71a291.57,291.57,0,0,1-61.72-19A183.2,183.2,0,0,1,37.05,171a109.5,109.5,0,0,1-24.35-24.53C6.46,137.53,2.1,127.82.56,117A57.15,57.15,0,0,1,2.32,92.91,74,74,0,0,1,16.45,66.67,120.64,120.64,0,0,1,41.68,43.74C56.23,33.63,72,26,88.65,19.92a306.79,306.79,0,0,1,45-12.6c9.42-1.9,18.89-3.53,28.46-4.52,7.66-.79,15.34-1.51,23-2,6.69-.43,13.39-0.62,20.09-0.72,6.14-.1,12.3-0.12,18.43.15,7.7,0.33,15.38.95,23.07,1.53a338.64,338.64,0,0,1,72,14.21A242.92,242.92,0,0,1,357,31.56a161.73,161.73,0,0,1,32.18,21.38c9.75,8.48,18.06,18.12,23.67,29.88a60.61,60.61,0,0,1,6.06,23.7,59.53,59.53,0,0,1-5.29,27,83.48,83.48,0,0,1-15.4,22.83c-9.58,10.36-20.86,18.53-33,25.59a224.32,224.32,0,0,1-39.21,17.68,313.18,313.18,0,0,1-56.74,13.88c-7.89,1.19-15.84,2.07-23.79,2.83-6.95.66-13.92,1-20.89,1.37C219.63,218,214.59,218.06,209.5,218.21Zm46.93-48q11.48,0,23,0c2.52,0,2.43.34,3-2.47q2.53-13.15,5-26.31c0.24-1.26.35-1.38,1.65-1.38,8.44,0,16.88-.06,25.31,0a46.36,46.36,0,0,0,10.81-1,48.87,48.87,0,0,0,29.7-19.55c8.87-12.27,11.93-26.08,9.61-41a26.66,26.66,0,0,0-13.76-20,42.33,42.33,0,0,0-20.57-5.27c-17-.2-34.08-0.07-51.13-0.06-1.81,0-1.9.1-2.26,1.94L273,74.43q-5,25.38-10,50.76-4.22,21.35-8.46,42.7c-0.13.65-.17,1.31-0.31,2.32h2.24Zm-192.68,0H87.56c1.89,0,2-.05,2.3-1.88q2.53-13.33,5.06-26.66c0.29-1.52.42-1.65,2-1.65,8.55,0,17.1-.07,25.65,0a45.91,45.91,0,0,0,21.2-4.81,50,50,0,0,0,24.57-26A53.63,53.63,0,0,0,172,78.13c-1.7-9.27-6.75-16.18-15.28-20.39a44.07,44.07,0,0,0-19.28-4.44c-16.88-.15-33.76-0.05-50.64,0-2,0-2.07,0-2.45,1.94q-3.91,19.71-7.79,39.43-4,20.13-7.94,40.26Q65.32,151.56,62,168.25c-0.1.53-.15,1.07-0.24,1.8C62.57,170.11,63.16,170.21,63.75,170.21ZM168.65,140H193c1.69,0,1.79-.1,2.15-1.88q5.07-25.38,10.13-50.76c0.68-3.39,1.35-6.79,2-10.18,0.32-1.57.47-1.69,2.13-1.71,1.12,0,2.24,0,3.35,0,6,0,12,0,17.94.08a14,14,0,0,1,4.09.72,4.24,4.24,0,0,1,3.05,4.18,18.58,18.58,0,0,1-.21,3.83Q235.39,96.67,233,109c-1.81,9.6-3.66,19.19-5.47,28.79a11.71,11.71,0,0,0,0,2.11c0.46,0,.78.11,1.11,0.11q13.08,0,26.16,0c1.55,0,1.68-.14,2-1.85q2-11.88,4.06-23.77,2.82-16.51,5.63-33a27,27,0,0,0,.27-9.32c-1.12-6.34-4.74-10.85-10.28-13.91a42.14,42.14,0,0,0-19.82-4.86c-7.43-.16-14.87,0-22.3,0-0.65,0-1.29-.08-2.07-0.14a13.34,13.34,0,0,1,.09-1.65q2-10.69,4.08-21.38c0.36-1.86.75-3.72,1.07-5.59,0.18-1-.06-1.29-1.11-1.4a6.42,6.42,0,0,0-.67,0h-24c-1.74,0-1.87.13-2.21,1.82C189,28,188.39,31,187.78,34.1q-5,25.47-10,50.94-5.24,26.53-10.5,53.07c-0.1.53-.11,1.08-0.19,1.8C167.77,140,168.21,140,168.65,140Z"/></svg>