<svg xmlns="http://www.w3.org/2000/svg" viewBox="0 0 875.17 307.64"><title>Logos1</title><path d="M501.15,125L493.47,131l-9.35-6.54c-21.13-14.71-43.27-27.58-67.32-37-15.41-6-31.24-10.63-47.66-12.61a196.72,196.72,0,0,0-30.35-1.52c-22.75.8-44.19,7-64.7,16.92a147.21,147.21,0,0,0-46,34.89c-13.13,14.65-22.57,31.58-29.4,50a214.79,214.79,0,0,0-10.69,43.06A253,253,0,0,0,185.7,268c0.62,13.15,2.39,26.25,3.67,39.53H15.45c0.47-3.27.8-6.52,1.41-9.73,9.38-50,28.57-96.09,55.26-139.15A332.7,332.7,0,0,1,133.52,86a297.53,297.53,0,0,1,54.55-39.33C206,36.76,224.59,28.7,244.77,25.1a187.32,187.32,0,0,1,30-2.87A259.78,259.78,0,0,1,307.09,24c15.75,1.74,31.1,5.65,46.16,10.56,37,12,70.61,30.5,102.18,53a407,407,0,0,1,40.79,32.91C497.81,121.86,499.37,123.36,501.15,125Z"/><path d="M423.52,307.58h-3.19c-18.91,0-37.82,0-56.73,0a5.66,5.66,0,0,1-4.52-2q-16.39-17.17-32.92-34.22c-0.49-.51-1-1-2-1.81v37.78H282.12V150.12h80c20.59,0,40.67,13.72,47.21,33.22,6,17.83,5.36,35.67-3.53,52.56-6.06,11.53-15.92,18.54-28.66,21.41l-2.7.64Zm-99.26-81.84H327c9.58,0,19.16.08,28.73-.08a8.91,8.91,0,0,0,5-1.72c9.1-7.05,9.62-24.38,1.12-32.19a8.55,8.55,0,0,0-6.28-2.44c-9.41.14-18.82,0.05-28.23,0.06-1,0-2,.08-3.05.13v36.23Z"/><path d="M517.26,307.58V280.11H476.71v27.29h-43c0-.91,0-1.79,0-2.66q0-56.75,0-113.49c0-20.89,17.82-39.43,38.72-39.89,15.49-.34,31-0.51,46.49,0,16.82,0.56,35.18,11.19,38.86,31.33a64.64,64.64,0,0,1,1.09,11.41c0.08,36.83,0,73.66.1,110.49,0,2.42-.68,3.05-3.06,3-11.91-.12-23.83-0.05-35.75-0.05h-2.88Zm-40.78-72.42h40.61v-2.81q0-16.49,0-33c0-6.32-3.14-10.3-9.42-10.64a183.91,183.91,0,0,0-21.95.13c-6.21.41-9.24,4.3-9.24,10.48q0,16.49,0,33v2.84Z"/><path d="M868.91,191.25h-6.23c-20.75,0-41.49,0-62.24-.05-2.23,0-2.85.63-2.78,2.81,0.15,5.15,0,10.3,0,15.73,1.16,0.06,2.12.16,3.08,0.16,11.08,0,22.16,0,33.24,0a40.56,40.56,0,0,1,40.58,38.19c0.55,9.06,1.2,18.21-.82,27.13-3.94,17.42-15.46,27.36-32.47,31.4a32.75,32.75,0,0,1-7.41.9q-35,.1-70,0c-0.65,0-1.3-.06-2.1-0.11V267.56h72.79V247.81c-6.14,0-12.12.15-18.09,0-8.87-.28-17.79.74-26.6-1.49C772.87,242,760,226.39,759.65,208.77c-0.16-7.73-.45-15.57.6-23.19,2.59-18.76,20.31-34.08,39.26-34.26,22.66-.22,45.32-0.07,68-0.07,0.41,0,.82.06,1.42,0.11v39.89Z"/><path d="M686.35,267.2h60.14v40.38h-2.82q-49.37,0-98.74.05c-2.38,0-3.09-.6-3.08-3q0.1-75.24.05-150.48v-2.68h44.45V267.2Z"/><path d="M623.44,151.45c0,1.08,0,2,0,2.89q0,75,0,149.95c0,3.22,0,3.22-3.26,3.22H578.83V151.45h44.61Z"/><path d="M11,191.82L36.3,201l-11,26.42L0,218.15Z"/><path d="M196.45,263.4l9.66,3.44c4.22,1.52,8.46,3,12.64,4.61a3.21,3.21,0,0,1,1.84,1.87c1.66,8.89,3.19,17.81,4.79,26.91a14.82,14.82,0,0,1-1.7-.4c-7.43-2.65-14.85-5.35-22.3-7.94a2.87,2.87,0,0,1-2.29-2.77C198.29,280.78,197.39,272.45,196.45,263.4Z"/><path d="M71,104.87l16.79-16L103,102.13,88.06,119.48Z"/><path d="M206.84,183.12c5,4,9.94,7.81,14.73,11.79,0.52,0.43.58,1.77,0.43,2.61-1.44,7.68-3,15.34-4.5,23.15a9.27,9.27,0,0,1-1.29-.77c-4.85-3.81-9.66-7.65-14.53-11.43a2.51,2.51,0,0,1-1.15-3.11c2-6.79,3.73-13.63,5.59-20.44A17.68,17.68,0,0,1,206.84,183.12Z"/><path d="M232,135.88l13.57-14.72,9.9,14.87-13,15.56Z"/><path d="M169.72,46.15L159.65,30.81l17.13-9.36,9.8,15Z"/><path d="M358.81,12.68c7,2.65,13.71,5.14,20.34,7.7a1.68,1.68,0,0,1,.85,1.3c-0.22,4.47-.54,8.93-0.84,13.49-6.89-2.52-13.52-4.93-20.11-7.41a1.85,1.85,0,0,1-.95-1.42C358.26,22,358.53,17.74,358.81,12.68Z"/><path d="M287.14,94.56l19.3-7L311.24,102l-19,7.7Z"/><path d="M358.36,82.2l21.73,2.89-0.91,13.44-21.64-2.72Z"/><path d="M278.49,13l-21.17,1-4.21-13C259.87,0.69,266.34.3,272.81,0a2.11,2.11,0,0,1,1.69,1C275.9,4.94,277.16,9,278.49,13Z"/></svg>