<svg xmlns="http://www.w3.org/2000/svg" viewBox="0 0 327.1 313.63"><title>Logos1</title><path d="M305.93,311.23L90.11,281.85,90,281.6,233,189.72Z"/><path d="M314.27,308.66c-1.08-1.41-2.28-2.75-3.21-4.25-5-8-9.93-15.93-14.78-24q-27.77-46.08-55.46-92.21l-0.59-1a3.66,3.66,0,0,1,.15-4.31q6.21-9.19,12.35-18.42,27.17-40.88,54.33-81.77,9.37-14.09,18.84-28.12a3.71,3.71,0,0,1,.9-0.7A3.59,3.59,0,0,1,327.1,55c-0.3,6.37-.63,12.74-1,19.12Q325.55,86,325,97.95q-0.46,9.24-.91,18.49-0.59,11.92-1.2,23.84-0.46,9.14-.9,18.28-0.6,12-1.2,24.05-0.46,9.3-.91,18.59-0.59,11.87-1.19,23.74-0.46,9.24-.91,18.49-0.59,11.92-1.19,23.84-0.47,9.4-.92,18.8-0.55,11.23-1.12,22.46Z"/><path d="M198.07,24.24c-3.25,6.49-6.44,12.92-9.67,19.33-2.88,5.72-5.86,11.39-8.68,17.15a21.28,21.28,0,0,1-4.82,6.41q-25.27,23.18-50.49,46.4c-4.33,4-8.53,8.12-12.73,12.24a48.24,48.24,0,0,1-11,8.13c-19.25,10.35-38.88,19.92-58.5,29.54a3.7,3.7,0,0,1-4.3-.64A106.72,106.72,0,0,1,24.5,148.44l5.26-7.84c5.92-8.81,11.87-17.6,17.75-26.44a88,88,0,0,1,13.72-16Q79.15,81.6,97,65c4-3.67,7.82-7.45,11.77-11.13,5.11-4.77,11-8.39,17.08-11.81C140.44,33.8,155,25.62,169.63,17.41c0.76-.43,1.51-0.88,2.29-1.29a4.52,4.52,0,0,1,3.93-.32c7.09,2.71,14.21,5.36,21.31,8C197.42,23.93,197.67,24.06,198.07,24.24Z"/><path d="M81.36,274.68l30.52-128.44L224.22,182.6Z"/><path d="M192,74.54L313.86,54.29,233.47,175Z"/><path d="M113.52,137.37l69.59-63.5L224,173.18Z"/><path d="M73.79,277.81L0.24,279.89,39,187.66Z"/><path d="M102.45,144.72c-0.58,2.5-1.11,4.88-1.68,7.25Q88.3,203.6,75.8,255.22a5.72,5.72,0,0,1-.6,1.19l-0.38-.1-31.31-81.1Z"/><path d="M189.57,65.54a10.34,10.34,0,0,1,.5-1.93Q199.13,45.3,208.23,27c0.95-1.91,2-2.29,4.37-1.67q25.16,6.7,50.32,13.38c11.74,3.1,23.5,6.14,35.24,9.22a3.38,3.38,0,0,1,.91.61,3.64,3.64,0,0,1-1,.49q-10.74,1.66-21.49,3.28L252.49,56l-22.85,3.47-24.41,3.69Z"/><path d="M326.54,47l-6.06-1.66L232.11,20.74a1.31,1.31,0,0,1-.4-0.14c-0.28-.19-0.54-0.41-0.81-0.62a3.24,3.24,0,0,1,.82-0.46q16.85-3.76,33.71-7.49,22.19-4.9,44.38-9.8a0.89,0.89,0,0,1,1.31.65q7.58,21.7,15.2,43.38C326.4,46.45,326.44,46.65,326.54,47Z"/><path d="M14.4,290.53a12,12,0,0,1,2.81-.78q18-.51,36-0.9c7-.16,13.95-0.46,20.92-0.36,4.82,0.07,9.64.6,14.45,1.11,6,0.64,12,1.44,18,2.21q9.9,1.27,19.79,2.61c6.42,0.87,12.83,1.76,19.25,2.65l20.5,2.81c6.11,0.83,12.22,1.63,18.32,2.46,6.9,0.94,13.8,1.91,20.71,2.86L225.85,308l20.81,2.85,13.08,1.82-0.15.95L14.49,291Z"/><path d="M0.66,254.18c-0.92,0-.64-0.55-0.55-1q1.09-5.51,2.21-11Q6.78,220,11.25,197.83q3.87-19.14,7.79-38.26a4.59,4.59,0,0,1,.15-0.47l0.39-.31a4.35,4.35,0,0,0,.56,1Q26.6,166.43,33.09,173a4.26,4.26,0,0,1,.73,5.06q-2.39,5.66-4.83,11.29-13.3,30.79-26.62,61.57C1.88,252.06,1.23,253.11.66,254.18Z"/><path d="M190.3,10.39l8.18-1.13,20.81-2.85L243,3.15l22.58-3.08A2.21,2.21,0,0,1,266.21,0a2.74,2.74,0,0,1,.6.25,1.44,1.44,0,0,1-.41.59,26.09,26.09,0,0,1-2.72.78c-11.86,2.6-23.72,5.16-35.57,7.8C222.38,10.71,216.64,12,211,13.55a24.9,24.9,0,0,1-15.55-.88c-1.73-.64-3.44-1.33-5.17-2Z"/></svg>