<svg xmlns="http://www.w3.org/2000/svg" viewBox="0 0 306.69 306.69"><title>Logos1</title><path d="M153,306.69C67.59,306.39-.33,237.72,0,152,0.32,67.42,69.29-.31,154.78,0c83.83,0.31,152,69.19,151.91,153.42C306.57,238.36,237.73,307,153,306.69ZM127.28,98.88c6.89-1.57,13-3.69,19.34-4.27,32.23-3,58,16.28,65.07,47.91,0.48,2.16,2.18,5.71,3.47,5.78,9.1,0.5,18.23.27,27.84,0.27-1.79-22.83-9.65-41.12-24.2-56.41-1.41-1.49-4.54-2.25-6.7-2-16.74,2.16-27-3.71-33.58-19.28-0.79-1.87-2.44-4.28-4.13-4.72-21-5.44-41.21-2.93-61.52,6.93Zm115.7,59c-8.42,0-15.85.31-23.25-.1-5.48-.3-7.26,1.72-8.47,7.11-5.62,25-21.08,41.52-46.28,46.05-11.9,2.14-24.69-.61-38.81-1.22l-13.24,23.68c20.23,10,40.42,12.35,61.4,7,1.85-.47,3.58-3.28,4.44-5.38,5.84-14.27,17.42-20.9,32.53-18.77,2.42,0.34,6-.18,7.49-1.75C233.29,199.23,241.24,181,243,157.9ZM119.45,202.56c-31.16-23.78-36.09-70-.15-98.87L104.41,78.92c-16,8.08-34.41,32.39-37.19,49-0.31,1.85.74,4.39,2,6,10.26,13.21,10.25,25.65.24,38.75-1.5,2-2.47,6-1.48,7.93,5.61,10.9,11.2,21.95,18.22,31.94,4.36,6.21,11.24,10.66,17.56,16.41ZM48.47,132a21.42,21.42,0,0,0-20.89,21.52c0.16,11.58,10,21.27,21.42,21.08A21.3,21.3,0,0,0,48.47,132ZM205.92,264.9a20.74,20.74,0,0,0,20.67-21.42,21,21,0,0,0-21.4-20.82,21.48,21.48,0,0,0-20.89,21.55A21.18,21.18,0,0,0,205.92,264.9Zm0.53-223.38a21.59,21.59,0,0,0-22.13,20.32c-0.58,11.44,8.79,21.57,20.34,22a20.91,20.91,0,0,0,21.93-20.23A21.12,21.12,0,0,0,206.45,41.52Z"/></svg>