<svg xmlns="http://www.w3.org/2000/svg" viewBox="0 0 660.22 148.34"><title>Logos1</title><path d="M135.82,148.34c-3-.23-5.94-0.43-8.9-0.69a98.47,98.47,0,0,1-22-4.59,1.29,1.29,0,0,1-1.14-1.56,6.85,6.85,0,0,0,0-1q0-67.69,0-135.38V2.89L121.64,0V52.09l1.75-.71c6.86-2.9,13.93-5,21.42-5.33,13.32-.58,24.28,4.65,33.24,14.19,10.53,11.22,15,24.73,14.38,40-0.45,11.37-3.56,21.82-10.76,30.8-7.55,9.43-17.57,14.53-29.39,16.22-3.28.47-6.63,0.5-9.95,0.74-1.14.08-2.27,0.22-3.41,0.33h-3.1ZM121.67,99.47c0,10.27,0,20.55,0,30.82,0,1.22.33,1.78,1.55,1.89,6.51,0.56,13,1.72,19.51,1.6,12.44-.24,22.23-6,27.85-17.14,7.56-15,6.18-30-2.24-44.32A23.15,23.15,0,0,0,151.56,61a55,55,0,0,0-11.65-.49,29.85,29.85,0,0,0-16.82,5.8,3.13,3.13,0,0,0-1.45,2.83C121.7,79.27,121.67,89.37,121.67,99.47Z"/><path d="M39.67,148.34c-3.58-.46-7.21-0.65-10.72-1.43-10.29-2.27-18.79-7.29-24.05-16.79A39.21,39.21,0,0,1,.13,111.28C-0.05,90.67,0,70,0,49.43c0-.27.06-0.55,0.09-0.92H17.9c0,0.69,0,1.35,0,2,0,20.27,0,40.54.09,60.81a30.75,30.75,0,0,0,1.13,7.81c2.25,8.3,7.85,13.14,16.29,14.23,9,1.16,18,.09,27-1.62V48.54h17.8v1.91q0,45.14,0,90.27a2.28,2.28,0,0,1-1.95,2.6c-8.11,2.54-16.47,3.57-24.88,4.29-3.88.33-7.77,0.49-11.66,0.73H39.67Z"/><path d="M524.53,148.34c-3.58-.46-7.21-0.65-10.72-1.43-10.35-2.29-18.88-7.35-24.13-17a39.36,39.36,0,0,1-4.69-18.7c-0.19-20.62-.11-41.23-0.13-61.85,0-.27.06-0.55,0.09-0.9h17.8c0,0.71,0,1.38,0,2q0,30.32.05,60.65a27,27,0,0,0,2.6,11.84c3,6.16,8.16,9.24,14.7,10.38,5.69,1,21.42,0,27.15-1.88v-83H565c0,0.57.09,1.17,0.09,1.77q0,45.31,0,90.62a2,2,0,0,1-1.63,2.3c-8.21,2.63-16.68,3.67-25.21,4.4-3.88.33-7.77,0.49-11.66,0.73h-2.07Z"/><path d="M248.85,148.34c-3.63-.46-7.34-0.64-10.89-1.45-11.58-2.64-20.7-8.61-25.47-20a45.56,45.56,0,0,1-3.33-17.65q-0.09-29.81-.05-59.61c0-.34.06-0.67,0.11-1.12H227c0,0.71,0,1.44,0,2.16,0,20.27,0,40.55.11,60.82a30.72,30.72,0,0,0,1.07,7.47c2.19,8.43,8.34,13.69,17,14.52a92.59,92.59,0,0,0,24.68-1.41c1.45-.25,1.74-0.93,1.74-2.31q-0.06-39.45,0-78.91V48.54h17.59c0,0.61.09,1.22,0.09,1.82q0,45.23,0,90.45a2.18,2.18,0,0,1-1.84,2.49c-8.16,2.57-16.58,3.61-25,4.32-3.94.33-7.89,0.49-11.84,0.72h-1.72Z"/><path d="M331.5,145.53h-17.9v-1.94q0-44.71,0-89.42a2.16,2.16,0,0,1,1.83-2.48,100.31,100.31,0,0,1,23.49-4.21,169.79,169.79,0,0,1,19.43-.35C367,47.55,375.06,50,381.63,56c5.79,5.34,8.67,12.2,9.82,19.82a79.89,79.89,0,0,1,.85,11.49c0.08,18.72,0,37.45,0,56.17v2H374.63v-2c0-19.53,0-39.05,0-58.58a43.11,43.11,0,0,0-1-9.21c-1.86-8.27-7.66-13.31-16.1-14.21s-16.62,0-24.85,1.35c-1.24.2-1.18,1-1.17,1.85q0,17.49,0,35,0,21.8,0,43.59C331.5,144,331.5,144.66,331.5,145.53Z"/><path d="M584.88,47a37.67,37.67,0,1,1,37.27,37.8A37.52,37.52,0,0,1,584.88,47ZM612.54,27.3c1.06,1.9,2,3.52,2.86,5.22,0.56,1.14,1.2,1,2.32.86,2.62-.38,5.42-1,7.93-0.44,6.2,1.27,9.9,5.37,11.21,11.61A2,2,0,0,0,638,45.91c2.14,0.14,4.3.06,6.4,0.06,0.34-4.24-2.07-10-5.35-13.69a2.4,2.4,0,0,0-2.39-.85c-3.8.52-6.46-1.12-7.88-4.59a3.38,3.38,0,0,0-1.6-1.44,6,6,0,0,0-2-.39A21.53,21.53,0,0,0,612.54,27.3Zm-2,1.38c-3.67,1.76-7.42,6.58-9,11.3a2.34,2.34,0,0,0,.47,2.62,6.5,6.5,0,0,1,.08,8.79,2.42,2.42,0,0,0-.46,2.93c0.3,0.68.5,1.41,0.82,2.07a21.71,21.71,0,0,0,8,9.18l3.81-6.37c-1-1-2.05-1.85-2.89-2.85C606.18,50.2,606.94,41.5,613,36a2.16,2.16,0,0,0,.8-1.56C612.81,32.45,611.62,30.57,610.5,28.69Zm2.14,38a2.89,2.89,0,0,0,.49.46,21.38,21.38,0,0,0,14.39,1.53,2,2,0,0,0,1.17-1c1.82-4.16,3.94-5.39,8.5-4.95a2,2,0,0,0,1.57-.61,54.9,54.9,0,0,0,4.08-6.32,14.46,14.46,0,0,0,1.65-7.47h-4.37c-2.82,0-2.82,0-3.57,2.64a14.58,14.58,0,0,1-18.84,9.93,2.18,2.18,0,0,0-1.86.18C614.67,62.85,613.68,64.78,612.64,66.66Zm22.83-2.5a5.17,5.17,0,0,0-5.26,5.19,5.23,5.23,0,0,0,5.14,5.33A5.26,5.26,0,1,0,635.47,64.16Zm0-34.24a5.24,5.24,0,0,0,5.19-5.28,5.43,5.43,0,0,0-5.36-5.2,5.26,5.26,0,0,0-5.11,5.36A5.08,5.08,0,0,0,635.49,29.91ZM591.54,47.13a5.19,5.19,0,0,0,5.27,5.17A5.29,5.29,0,0,0,602,47a5.38,5.38,0,0,0-5.32-5.21A5.26,5.26,0,0,0,591.54,47.13Z"/><path d="M429.66,48.4h36.86V62.59H429.67c0,0.88,0,1.56,0,2.23q0,26.88,0,53.76c0,7.72,4.77,14,12.42,15.2,4.25,0.69,8.69.38,13,.24,3.66-.12,7.3-0.63,11.11-1l2.07,12.19c-1.7.29-3.36,0.61-5,.84-7.22,1-14.43,2.19-21.76,1.57-7.5-.64-14.44-2.72-19.91-8.25-4.88-4.93-6.94-11.11-7.59-17.85-0.21-2.17-.24-4.36-0.24-6.54q0-46.52,0-93c0-1.72.46-2.33,2.2-2.59,4.53-.67,9-1.6,13.71-2.45V48.4Z"/></svg>