<svg xmlns="http://www.w3.org/2000/svg" viewBox="0 0 318.99 319.41"><title>Logos1</title><path d="M163.17,0c4.12,0.4,8.23.78,12.35,1.21,37.55,3.86,69.8,19.18,96.51,45.68,24.7,24.51,40.15,54.12,45.08,88.67,7.55,53-7.5,99-44.93,137.19-25.44,25.94-56.68,41.25-92.87,45.43-50.23,5.8-94.06-8.74-130.63-43.68C20.73,247.82,4.77,214.88.84,176.4A159.17,159.17,0,0,1,121.74,5c10-2.43,20.45-3,30.69-4.41,1-.14,2-0.37,3-0.56h7.7ZM7.14,159.9c-0.3,82,65.93,151.17,150,152.43,85.11,1.28,153.7-67,154.77-150.26C313,76,243.57,8.66,161.72,7.53,76.44,6.36,6.86,75.87,7.14,159.9Z"/><path d="M251.2,58.69C235,58.5,223.2,74.34,228.38,91c2,6.53,5.8,12.52,8.85,18.73,3.85,7.84,8.49,15.37,11.49,23.51,4.56,12.37,4.13,25.21.45,37.83-6.87,23.54-13.91,47-21.63,70.66L178.51,96c5.07-.49,9.89-0.91,14.7-1.45,4.12-.47,6.35-3,6-6.41s-2.75-5-7-4.94c-16.55.44-33.09,1-49.64,1.19-7.25.07-14.5-.85-21.75-1.17-4.52-.2-7.62,3.61-5.84,7.48a7.37,7.37,0,0,0,4.62,3.62c4.69,0.92,9.52,1.15,14.49,1.67,5.13,14,10.31,28.14,15.44,42.27,2,5.4,5.23,10.83,5.3,16.28s-3.18,10.72-5,16.09l-23.29,69.84c-0.29.87-.63,1.73-1.2,3.3L75.73,96c5.29-.52,10.16-0.94,15-1.5,3.66-.42,5.94-2.93,5.72-6C96.22,85,93.75,83,89.75,83.17l-41,1.47c-1,0-1.91,0-3.7,0,22.19-32.14,51.68-52.2,89.47-59.3C180,16.81,223.72,32.38,251.2,58.69Z"/><path d="M162.27,173.11l42.38,116.08c-27.63,9.48-55.4,10.12-83.78,2.12l40.67-118.18Z"/><path d="M99.49,282.73c-68.09-32.32-94.24-114.3-65-178Z"/><path d="M228.77,277.39q3.82-11.13,7.65-22.26c11.12-32.15,22.13-64.33,33.44-96.41C274,147,278.37,135.41,279.59,123c0.87-8.88.88-17.85,1.24-26.1,11.67,11.67,19.19,60.58,12.95,89.91C285.37,226.39,263.59,256.51,228.77,277.39Z"/></svg>